# xmcd
#
# Track frame offsets:
#	150
#	13908
#	25635
#	46089
#	66855
#	78705
#	92268
#	107052
#	118296
#	132573
#	147381
#	160344
#	173307
#	188118
#	200940
#
# Disc length: 2858
#
# Revision: 1
# Processed by: cddbd v1.5.1PL0 Copyright (c) Steve Scherf et al.
# Submitted via: CDex 1.51
# Normalized: r0:TDELIM( - )
#
DISCID=cf0b280f
DTITLE=Compilation Jazz - Les Voix du Jazz - CD 02
DYEAR=2004
DGENRE=Jazz
TTITLE0=Louis Armstrong - C'est si bon
TTITLE1=Ella Fitzgerald - It's Only Paper Moon
TTITLE2=Chet Baker - Autumn Leaves
TTITLE3=Anne Ducros - You've Got A Friend
TTITLE4=Dinah Washington - New Blow Top Blues
TTITLE5=Dillie Holiday - On The Sunny Side Of The Street
TTITLE6=Sarah Vaughan - Black Coffee
TTITLE7=Ray Charles - A Sentimental Blues
TTITLE8=Louis Armstrong and Ella Fitzgerald - Can Anymore Explain
TTITLE9=Ella Fitzgerald - Sentimental Journey
TTITLE10=Nat King Cole - For Sentimental Reasons
TTITLE11=Judy Garland - Over The Rainbow
TTITLE12=Fats Waller - Honey Hush
TTITLE13=Frank Sinatra - All Of Me
TTITLE14=Billie Holiday - Night And Day
EXTD=YEAR: 2004
EXTT0=
EXTT1=
EXTT2=
EXTT3=
EXTT4=
EXTT5=
EXTT6=
EXTT7=
EXTT8=
EXTT9=
EXTT10=
EXTT11=
EXTT12=
EXTT13=
EXTT14=
PLAYORDER=
